<mxGraphModel dx="0" dy="0" grid="1" gridSize="10" guides="1" tooltips="1" connect="1" arrows="1" fold="1" page="0" pageScale="1" background="none" math="0" shadow="0">
  <root>
    <mxCell id="0" />
    <mxCell id="1" parent="0" />
    <mxCell id="node1" parent="1" vertex="1" value="&lt;p style=&quot;margin:0px;margin-top:4px;text-align:center;&quot;&gt;&lt;b&gt;ControladorPersistenciaPerfil&lt;/b&gt;&lt;/p&gt;&lt;hr size=&quot;1&quot;/&gt;&lt;p style=&quot;margin:0 0 0 4px;line-height:1.6;&quot;&gt;- DATOS_DIR: String&lt;/p&gt;&lt;hr size=&quot;1&quot;/&gt;&lt;p style=&quot;margin:0 0 0 4px;line-height:1.6;&quot;&gt;+ guardarPerfiles(Map&amp;lt;String, ControladorPerfil&amp;gt;, String): void&lt;br/&gt;+ cargarPerfiles(String): Map&amp;lt;String, ControladorPerfil&amp;gt;&lt;br/&gt;+ guardarPerfil(Perfil): void&lt;br/&gt;+ cargar1Perfil(String): Perfil&lt;br/&gt;+ limpiarDatos(): void&lt;br/&gt;+ deletePerfil(String): void&lt;br/&gt;+ getPerfil(String): Perfil&lt;br/&gt;+ cargarTodosPerfiles(): Set&amp;lt;String&amp;gt;&lt;/p&gt;" style="verticalAlign=top;align=left;overflow=fill;fontSize=14;fontFamily=Helvetica;html=1;rounded=0;shadow=0;comic=0;labelBackgroundColor=none;strokeWidth=1;">
      <mxGeometry x="-165" y="-14" width="424" height="256" as="geometry" />
    </mxCell>
    <mxCell id="node0" parent="1" vertex="1" value="&lt;p style=&quot;margin:0px;margin-top:4px;text-align:center;&quot;&gt;&lt;b&gt;ControladorPersistenciaPrestatgeria&lt;/b&gt;&lt;/p&gt;&lt;hr size=&quot;1&quot;/&gt;&lt;p style=&quot;margin:0 0 0 4px;line-height:1.6;&quot;&gt;- DATOS_DIR: String&lt;/p&gt;&lt;hr size=&quot;1&quot;/&gt;&lt;p style=&quot;margin:0 0 0 4px;line-height:1.6;&quot;&gt;+ guardarPrestatgeria_driver(List&amp;lt;Prestatgeria&amp;gt;, String): void&lt;br/&gt;+ guardarPrestatgeria(Prestatgeria, String): void&lt;br/&gt;+ cargar1Prestatgeria(String): Prestatgeria&lt;br/&gt;+ limpiarDatos(): void&lt;br/&gt;+ cargarPrestatgeria_driver(String): List&amp;lt;Prestatgeria&amp;gt;&lt;br/&gt;+ getArxiusPrestatgeria(String): Set&amp;lt;String&amp;gt;&lt;br/&gt;+ deletePrestatgerias(String): void&lt;br/&gt;+ editar_nombre_prestatgeria(String, String): void&lt;br/&gt;+ buscarPrestatgeria(String, String): Prestatgeria&lt;br/&gt;+ getPrestatgeria(String, String): Prestatgeria&lt;br/&gt;+ deletePrestatgeria(String, String): void&lt;/p&gt;" style="verticalAlign=top;align=left;overflow=fill;fontSize=14;fontFamily=Helvetica;html=1;rounded=0;shadow=0;comic=0;labelBackgroundColor=none;strokeWidth=1;">
      <mxGeometry x="-160" y="290" width="415" height="328" as="geometry" />
    </mxCell>
  </root>
</mxGraphModel>